# xmcd
#
# Track frame offsets: 
#        150
#        16108
#        32005
#        45299
#        64087
#        74557
#        91918
#        106741
#        122485
#        139253
#        151468
#        166469
#        180429
#        193672
#        206941
#        221440
#
# Disc length: 3016 seconds
#
# Revision: 0
# Processed by: cddbd v1.5.2PL0 Copyright (c) Steve Scherf et al.
# Submitted via: ExactAudioCopy v0.99pb4
#
DISCID=d90bc610
DTITLE=The Hoyle Brothers - Don't Leave Yet
DYEAR=2009
DGENRE=Country
TTITLE0=How Many More Nights
TTITLE1=End Of The Road
TTITLE2=If I'm Not Drunk
TTITLE3=Shot Of Bourbon
TTITLE4=Hope Your Mama's Proud
TTITLE5=Don't Leave Yet
TTITLE6=My Misery
TTITLE7=Hank
TTITLE8=Heavy Now Hangs The Head
TTITLE9=Anita, You're Dreaming
TTITLE10=The Woman That Passed Me By
TTITLE11=One More Day
TTITLE12=I Write You Letters
TTITLE13=Love Has Let Me Down
TTITLE14=Truck Stop Coffee
TTITLE15=Outro
EXTD=
EXTT0=
EXTT1=
EXTT2=
EXTT3=
EXTT4=
EXTT5=
EXTT6=
EXTT7=
EXTT8=
EXTT9=
EXTT10=
EXTT11=
EXTT12=
EXTT13=
EXTT14=
EXTT15=
PLAYORDER=
